<?xml version="1.0" encoding="utf-8"?>
<!-- Generator: Adobe Illustrator 19.0.0, SVG Export Plug-In . SVG Version: 6.00 Build 0)  -->
<svg version="1.1" id="Layer_1" xmlns="http://www.w3.org/2000/svg" xmlns:xlink="http://www.w3.org/1999/xlink" x="0px" y="0px"
	 viewBox="0 0 96 96" style="enable-background:new 0 0 96 96;" xml:space="preserve">
<style type="text/css">
	.st0{fill:#25B7D3;}
	.st1{fill:#3E3E3F;}
	.st2{fill:#FA5655;}
	.st3{fill:#F99134;}
	.st4{fill:#FACB1B;}
	.st5{fill:#F0F1F1;}
	.st6{fill:#FFFFFF;}
	.st7{fill:#818284;}
</style>
<g id="XMLID_1_">
	<!-- <circle id="XMLID_3_" class="st0" cx="48" cy="48" r="50.5"/> -->
	<circle id="XMLID_3_" class="st0" cx="48" cy="48" r="32.5"/>
	<path id="XMLID_4_" class="st1" d="M53.9,65.7c0,0.7-0.5,1.2-1.2,1.2h-9.5c-0.7,0-1.2-0.5-1.2-1.2V49.2c0-0.7,0.5-1.2,1.2-1.2h9.5
		c0.7,0,1.2,0.5,1.2,1.2V65.7z"/>
	<path id="XMLID_5_" class="st1" d="M66.9,65.7c0,0.7-0.5,1.2-1.2,1.2h-9.5c-0.7,0-1.2-0.5-1.2-1.2V49.2c0-0.7,0.5-1.2,1.2-1.2h9.5
		c0.7,0,1.2,0.5,1.2,1.2V65.7z"/>
	<path id="XMLID_6_" class="st1" d="M40.9,65.7c0,0.7-0.5,1.2-1.2,1.2h-9.5c-0.7,0-1.2-0.5-1.2-1.2V49.2c0-0.7,0.5-1.2,1.2-1.2h9.5
		c0.7,0,1.2,0.5,1.2,1.2V65.7z"/>
	<circle id="XMLID_7_" class="st2" cx="38.3" cy="50.7" r="0.9"/>
	<circle id="XMLID_8_" class="st3" cx="35.3" cy="50.7" r="0.9"/>
	<circle id="XMLID_9_" class="st4" cx="32.3" cy="50.7" r="0.9"/>
	<path id="XMLID_10_" class="st5" d="M60.4,40.1c0-2.3-1.4-4.3-3.5-5.2c-1.6-4-4.2-5.6-7.4-5.6c-3,0-5.6,1.7-6.9,4.2
		c-2-0.9-4.3,0.6-4.4,2.8C36.3,37,35,38.8,35,40.9c0,2.6,2.1,4.8,4.8,4.8h15.9C55.6,45.6,60.4,44.7,60.4,40.1z"/>
	<path id="XMLID_11_" class="st6" d="M49.5,29.3c-3,0-5.6,1.7-6.9,4.2c-2-0.9-4.3,0.6-4.4,2.8C36.3,37,35,38.8,35,40.9
		c0,2.5,1.9,4.5,4.4,4.7l14.7-14.7C52.8,29.8,51.2,29.3,49.5,29.3z"/>
	<circle id="XMLID_12_" class="st2" cx="51.3" cy="50.7" r="0.9"/>
	<circle id="XMLID_13_" class="st3" cx="48.3" cy="50.7" r="0.9"/>
	<circle id="XMLID_14_" class="st4" cx="45.3" cy="50.7" r="0.9"/>
	<circle id="XMLID_15_" class="st2" cx="64.3" cy="50.7" r="0.9"/>
	<circle id="XMLID_16_" class="st3" cx="61.3" cy="50.7" r="0.9"/>
	<circle id="XMLID_17_" class="st4" cx="58.3" cy="50.7" r="0.9"/>
	<rect id="XMLID_18_" x="29.1" y="62.8" class="st7" width="11.8" height="1.2"/>
	<rect id="XMLID_19_" x="29.1" y="59.8" class="st7" width="11.8" height="1.2"/>
	<rect id="XMLID_20_" x="29.1" y="56.9" class="st7" width="11.8" height="1.2"/>
	<rect id="XMLID_21_" x="29.1" y="53.9" class="st7" width="11.8" height="1.2"/>
	<rect id="XMLID_22_" x="42.1" y="62.8" class="st7" width="11.8" height="1.2"/>
	<rect id="XMLID_23_" x="42.1" y="59.8" class="st7" width="11.8" height="1.2"/>
	<rect id="XMLID_24_" x="42.1" y="56.9" class="st7" width="11.8" height="1.2"/>
	<rect id="XMLID_25_" x="42.1" y="53.9" class="st7" width="11.8" height="1.2"/>
	<rect id="XMLID_26_" x="55.1" y="62.8" class="st7" width="11.8" height="1.2"/>
	<rect id="XMLID_27_" x="55.1" y="59.8" class="st7" width="11.8" height="1.2"/>
	<rect id="XMLID_28_" x="55.1" y="56.9" class="st7" width="11.8" height="1.2"/>
	<rect id="XMLID_29_" x="55.1" y="53.9" class="st7" width="11.8" height="1.2"/>
</g>
</svg>
